# MagicaVoxel @ Ephtracy

# material
mtllib Fire Frame 14.mtl
usemtl palette

# normals
vn -1 0 0
vn 1 0 0
vn 0 0 1
vn 0 0 -1
vn 0 -1 0
vn 0 1 0

# texcoords
vt 0.00195313 0.5
vt 0.0683594 0.5
vt 0.0800781 0.5

# verts
v -1 0 0.5
v -1 0 -0.5
v -1 2 0.5
v -1 2 -0.5
v 0 0 -0.5
v 0 0 -1.5
v 0 1 -0.5
v 0 1 -1.5
v 0 2 0.5
v 0 2 -0.5
v 0 3 0.5
v 0 3 -0.5
v 1 0 -0.5
v 1 0 -1.5
v 1 1 0.5
v 1 1 -0.5
v 1 1 -1.5
v 1 3 0.5
v 1 3 -0.5
v 2 0 0.5
v 2 0 -0.5
v 2 1 0.5
v 2 1 -0.5
v -1 0 0.5
v -1 2 0.5
v 0 0 0.5
v 0 1 0.5
v 0 2 0.5
v 0 3 0.5
v 1 1 0.5
v 1 3 0.5
v 2 0 0.5
v 2 1 0.5
v -1 0 -0.5
v -1 2 -0.5
v 0 0 -0.5
v 0 1 -0.5
v 0 2 -0.5
v 0 3 -0.5
v 1 0 -0.5
v 1 1 -0.5
v 1 3 -0.5
v 2 0 -0.5
v 2 1 -0.5
v 0 0 -1.5
v 0 1 -1.5
v 1 0 -1.5
v 1 1 -1.5
v -1 0 0.5
v 0 0 0.5
v 2 0 0.5
v -1 0 -0.5
v 0 0 -0.5
v 1 0 -0.5
v 2 0 -0.5
v 0 0 -1.5
v 1 0 -1.5
v 1 1 0.5
v 2 1 0.5
v 0 1 -0.5
v 1 1 -0.5
v 2 1 -0.5
v 0 1 -1.5
v 1 1 -1.5
v -1 2 0.5
v 0 2 0.5
v -1 2 -0.5
v 0 2 -0.5
v 0 3 0.5
v 1 3 0.5
v 0 3 -0.5
v 1 3 -0.5

# faces
f 3/2/1 2/2/1 1/2/1
f 4/2/1 2/2/1 3/2/1
f 7/3/1 6/3/1 5/3/1
f 8/3/1 6/3/1 7/3/1
f 11/2/1 10/2/1 9/2/1
f 12/2/1 10/2/1 11/2/1
f 13/3/2 14/3/2 16/3/2
f 16/3/2 14/3/2 17/3/2
f 15/2/2 16/2/2 18/2/2
f 18/2/2 16/2/2 19/2/2
f 20/1/2 21/1/2 22/1/2
f 22/1/2 21/1/2 23/1/2
f 26/2/3 25/2/3 24/2/3
f 27/2/3 25/2/3 26/2/3
f 28/2/3 25/2/3 27/2/3
f 30/1/3 27/1/3 26/1/3
f 30/2/3 29/2/3 28/2/3
f 30/2/3 28/2/3 27/2/3
f 31/2/3 29/2/3 30/2/3
f 32/1/3 30/1/3 26/1/3
f 33/1/3 30/1/3 32/1/3
f 34/2/4 35/2/4 36/2/4
f 36/2/4 35/2/4 37/2/4
f 37/2/4 35/2/4 38/2/4
f 38/2/4 39/2/4 41/2/4
f 37/2/4 38/2/4 41/2/4
f 41/2/4 39/2/4 42/2/4
f 40/1/4 41/1/4 43/1/4
f 43/1/4 41/1/4 44/1/4
f 45/3/4 46/3/4 47/3/4
f 47/3/4 46/3/4 48/3/4
f 52/2/5 50/2/5 49/2/5
f 53/1/5 51/1/5 50/1/5
f 53/2/5 50/2/5 52/2/5
f 54/1/5 51/1/5 53/1/5
f 55/1/5 51/1/5 54/1/5
f 56/3/5 54/3/5 53/3/5
f 57/3/5 54/3/5 56/3/5
f 58/1/6 59/1/6 61/1/6
f 61/1/6 59/1/6 62/1/6
f 60/3/6 61/3/6 63/3/6
f 63/3/6 61/3/6 64/3/6
f 65/2/6 66/2/6 67/2/6
f 67/2/6 66/2/6 68/2/6
f 69/2/6 70/2/6 71/2/6
f 71/2/6 70/2/6 72/2/6
