# MagicaVoxel @ Ephtracy

# material
mtllib Fire Frame 11.mtl
usemtl palette

# normals
vn -1 0 0
vn 1 0 0
vn 0 0 1
vn 0 0 -1
vn 0 -1 0
vn 0 1 0

# texcoords
vt 0.00976563 0.5
vt 0.0292969 0.5
vt 0.0332031 0.5
vt 0.0488281 0.5
vt 0.0527344 0.5
vt 0.0566406 0.5
vt 0.0605469 0.5
vt 0.0644531 0.5
vt 0.0683594 0.5
vt 0.0722656 0.5
vt 0.0800781 0.5
vt 0.0839844 0.5
vt 0.0878906 0.5
vt 0.0917969 0.5
vt 0.0957031 0.5

# verts
v -2 1 0.5
v -2 1 -0.5
v -2 2 0.5
v -2 2 -0.5
v -2 3 0.5
v -2 3 -0.5
v -2 4 0.5
v -2 4 -0.5
v -1 0 0.5
v -1 0 -0.5
v -1 1 1.5
v -1 1 0.5
v -1 1 -0.5
v -1 2 1.5
v -1 2 0.5
v -1 3 1.5
v -1 3 0.5
v -1 4 0.5
v -1 4 -0.5
v -1 5 0.5
v -1 5 -0.5
v -1 6 0.5
v -1 6 -0.5
v 0 0 1.5
v 0 0 0.5
v 0 0 -0.5
v 0 0 -1.5
v 0 1 1.5
v 0 1 0.5
v 0 1 -0.5
v 0 1 -1.5
v 0 2 -0.5
v 0 2 -1.5
v 0 3 1.5
v 0 3 0.5
v 0 3 -0.5
v 0 3 -1.5
v 0 4 1.5
v 0 4 0.5
v 0 6 0.5
v 0 6 -0.5
v 0 7 0.5
v 0 7 -0.5
v 0 8 0.5
v 0 8 -0.5
v 1 3 -0.5
v 1 3 -1.5
v 1 4 1.5
v 1 4 0.5
v 1 4 -0.5
v 1 4 -1.5
v 1 5 1.5
v 1 5 0.5
v 1 0 1.5
v 1 0 0.5
v 1 0 -0.5
v 1 0 -1.5
v 1 1 1.5
v 1 1 0.5
v 1 1 -0.5
v 1 1 -1.5
v 1 2 1.5
v 1 2 0.5
v 1 6 0.5
v 1 6 -0.5
v 1 7 0.5
v 1 7 -0.5
v 1 8 0.5
v 1 8 -0.5
v 2 0 0.5
v 2 0 -0.5
v 2 1 0.5
v 2 1 -0.5
v 2 1 -1.5
v 2 2 1.5
v 2 2 0.5
v 2 2 -0.5
v 2 2 -1.5
v 2 3 1.5
v 2 3 0.5
v 2 3 -0.5
v 2 3 -1.5
v 2 4 1.5
v 2 4 0.5
v 2 4 -0.5
v 2 4 -1.5
v 2 5 1.5
v 2 5 0.5
v 2 5 -0.5
v 2 6 0.5
v 2 6 -0.5
v 3 1 0.5
v 3 1 -0.5
v 3 3 0.5
v 3 3 -0.5
v 3 4 0.5
v 3 4 -0.5
v -1 1 1.5
v -1 2 1.5
v -1 3 1.5
v 0 0 1.5
v 0 1 1.5
v 0 2 1.5
v 0 3 1.5
v 0 4 1.5
v 1 0 1.5
v 1 1 1.5
v 1 2 1.5
v 1 3 1.5
v 1 4 1.5
v 1 5 1.5
v 2 2 1.5
v 2 3 1.5
v 2 4 1.5
v 2 5 1.5
v -2 1 0.5
v -2 2 0.5
v -2 3 0.5
v -2 4 0.5
v -1 0 0.5
v -1 1 0.5
v -1 2 0.5
v -1 3 0.5
v -1 4 0.5
v -1 5 0.5
v -1 6 0.5
v 0 0 0.5
v 0 1 0.5
v 0 3 0.5
v 0 4 0.5
v 0 5 0.5
v 0 6 0.5
v 0 7 0.5
v 0 8 0.5
v 1 0 0.5
v 1 1 0.5
v 1 2 0.5
v 1 4 0.5
v 1 5 0.5
v 1 6 0.5
v 1 7 0.5
v 1 8 0.5
v 2 0 0.5
v 2 1 0.5
v 2 2 0.5
v 2 3 0.5
v 2 4 0.5
v 2 5 0.5
v 2 6 0.5
v 3 1 0.5
v 3 3 0.5
v 3 4 0.5
v -2 1 -0.5
v -2 2 -0.5
v -2 3 -0.5
v -2 4 -0.5
v -1 0 -0.5
v -1 1 -0.5
v -1 2 -0.5
v -1 3 -0.5
v -1 4 -0.5
v -1 5 -0.5
v -1 6 -0.5
v 0 0 -0.5
v 0 1 -0.5
v 0 2 -0.5
v 0 3 -0.5
v 0 4 -0.5
v 0 5 -0.5
v 0 6 -0.5
v 0 7 -0.5
v 0 8 -0.5
v 1 0 -0.5
v 1 1 -0.5
v 1 3 -0.5
v 1 4 -0.5
v 1 5 -0.5
v 1 6 -0.5
v 1 7 -0.5
v 1 8 -0.5
v 2 0 -0.5
v 2 1 -0.5
v 2 2 -0.5
v 2 3 -0.5
v 2 4 -0.5
v 2 5 -0.5
v 2 6 -0.5
v 3 1 -0.5
v 3 3 -0.5
v 3 4 -0.5
v 0 0 -1.5
v 0 1 -1.5
v 0 2 -1.5
v 0 3 -1.5
v 1 0 -1.5
v 1 1 -1.5
v 1 2 -1.5
v 1 3 -1.5
v 1 4 -1.5
v 2 1 -1.5
v 2 2 -1.5
v 2 3 -1.5
v 2 4 -1.5
v 0 0 1.5
v 1 0 1.5
v -1 0 0.5
v 0 0 0.5
v 1 0 0.5
v 2 0 0.5
v -1 0 -0.5
v 0 0 -0.5
v 1 0 -0.5
v 2 0 -0.5
v 0 0 -1.5
v 1 0 -1.5
v -1 1 1.5
v 0 1 1.5
v -2 1 0.5
v -1 1 0.5
v 0 1 0.5
v 2 1 0.5
v 3 1 0.5
v -2 1 -0.5
v -1 1 -0.5
v 1 1 -0.5
v 2 1 -0.5
v 3 1 -0.5
v 1 1 -1.5
v 2 1 -1.5
v 1 2 1.5
v 2 2 1.5
v 1 2 0.5
v 2 2 0.5
v -1 3 1.5
v 0 3 1.5
v -1 3 0.5
v 0 3 0.5
v 0 3 -0.5
v 1 3 -0.5
v 0 3 -1.5
v 1 3 -1.5
v 0 4 1.5
v 1 4 1.5
v -2 4 0.5
v -1 4 0.5
v 0 4 0.5
v 1 4 0.5
v 2 4 0.5
v 3 4 0.5
v -2 4 -0.5
v -1 4 -0.5
v 1 4 -0.5
v 2 4 -0.5
v 3 4 -0.5
v 1 4 -1.5
v 2 4 -1.5
v 1 5 1.5
v 2 5 1.5
v 1 5 0.5
v 2 5 0.5
v -1 6 0.5
v 0 6 0.5
v 1 6 0.5
v 2 6 0.5
v -1 6 -0.5
v 0 6 -0.5
v 1 6 -0.5
v 2 6 -0.5
v 0 8 0.5
v 1 8 0.5
v 0 8 -0.5
v 1 8 -0.5

# faces
f 3/7/1 2/7/1 1/7/1
f 4/7/1 2/7/1 3/7/1
f 5/6/1 4/6/1 3/6/1
f 6/6/1 4/6/1 5/6/1
f 7/9/1 6/9/1 5/9/1
f 8/9/1 6/9/1 7/9/1
f 12/2/1 10/2/1 9/2/1
f 13/2/1 10/2/1 12/2/1
f 14/14/1 12/14/1 11/14/1
f 15/14/1 12/14/1 14/14/1
f 16/8/1 15/8/1 14/8/1
f 17/8/1 15/8/1 16/8/1
f 20/14/1 19/14/1 18/14/1
f 21/14/1 19/14/1 20/14/1
f 22/9/1 21/9/1 20/9/1
f 23/9/1 21/9/1 22/9/1
f 28/12/1 25/12/1 24/12/1
f 29/12/1 25/12/1 28/12/1
f 30/1/1 27/1/1 26/1/1
f 31/1/1 27/1/1 30/1/1
f 32/7/1 31/7/1 30/7/1
f 33/7/1 31/7/1 32/7/1
f 36/10/1 33/10/1 32/10/1
f 37/10/1 33/10/1 36/10/1
f 38/8/1 35/8/1 34/8/1
f 39/8/1 35/8/1 38/8/1
f 42/14/1 41/14/1 40/14/1
f 43/14/1 41/14/1 42/14/1
f 44/11/1 43/11/1 42/11/1
f 45/11/1 43/11/1 44/11/1
f 50/15/1 47/15/1 46/15/1
f 51/15/1 47/15/1 50/15/1
f 52/14/1 49/14/1 48/14/1
f 53/14/1 49/14/1 52/14/1
f 54/12/2 55/12/2 58/12/2
f 58/12/2 55/12/2 59/12/2
f 56/1/2 57/1/2 60/1/2
f 60/1/2 57/1/2 61/1/2
f 58/10/2 59/10/2 62/10/2
f 62/10/2 59/10/2 63/10/2
f 64/14/2 65/14/2 66/14/2
f 66/14/2 65/14/2 67/14/2
f 66/11/2 67/11/2 68/11/2
f 68/11/2 67/11/2 69/11/2
f 70/2/2 71/2/2 72/2/2
f 72/2/2 71/2/2 73/2/2
f 73/7/2 74/7/2 77/7/2
f 77/7/2 74/7/2 78/7/2
f 75/7/2 76/7/2 79/7/2
f 79/7/2 76/7/2 80/7/2
f 77/12/2 78/12/2 81/12/2
f 81/12/2 78/12/2 82/12/2
f 79/9/2 80/9/2 83/9/2
f 83/9/2 80/9/2 84/9/2
f 81/15/2 82/15/2 85/15/2
f 85/15/2 82/15/2 86/15/2
f 83/14/2 84/14/2 87/14/2
f 84/14/2 85/14/2 87/14/2
f 87/14/2 85/14/2 88/14/2
f 88/14/2 85/14/2 89/14/2
f 88/11/2 89/11/2 90/11/2
f 90/11/2 89/11/2 91/11/2
f 92/7/2 93/7/2 94/7/2
f 94/7/2 93/7/2 95/7/2
f 94/9/2 95/9/2 96/9/2
f 96/9/2 95/9/2 97/9/2
f 102/14/3 99/14/3 98/14/3
f 103/8/3 100/8/3 99/8/3
f 103/14/3 99/14/3 102/14/3
f 104/8/3 100/8/3 103/8/3
f 106/12/3 102/12/3 101/12/3
f 107/10/3 103/10/3 102/10/3
f 107/12/3 102/12/3 106/12/3
f 108/15/3 104/15/3 103/15/3
f 108/10/3 103/10/3 107/10/3
f 109/8/3 105/8/3 104/8/3
f 109/15/3 104/15/3 108/15/3
f 110/8/3 105/8/3 109/8/3
f 112/7/3 109/7/3 108/7/3
f 113/9/3 110/9/3 109/9/3
f 113/7/3 109/7/3 112/7/3
f 114/14/3 111/14/3 110/14/3
f 114/9/3 110/9/3 113/9/3
f 115/14/3 111/14/3 114/14/3
f 121/7/3 117/7/3 116/7/3
f 122/6/3 118/6/3 117/6/3
f 122/7/3 117/7/3 121/7/3
f 123/9/3 119/9/3 118/9/3
f 123/6/3 118/6/3 122/6/3
f 124/9/3 119/9/3 123/9/3
f 127/2/3 121/2/3 120/2/3
f 128/2/3 121/2/3 127/2/3
f 129/8/3 124/8/3 123/8/3
f 130/14/3 125/14/3 124/14/3
f 130/8/3 124/8/3 129/8/3
f 131/9/3 126/9/3 125/9/3
f 131/14/3 125/14/3 130/14/3
f 132/9/3 126/9/3 131/9/3
f 138/15/3 131/15/3 130/15/3
f 139/13/3 132/13/3 131/13/3
f 139/15/3 131/15/3 138/15/3
f 140/14/3 133/14/3 132/14/3
f 140/13/3 132/13/3 139/13/3
f 141/11/3 134/11/3 133/11/3
f 141/14/3 133/14/3 140/14/3
f 142/11/3 134/11/3 141/11/3
f 143/2/3 136/2/3 135/2/3
f 144/5/3 137/5/3 136/5/3
f 144/2/3 136/2/3 143/2/3
f 145/5/3 137/5/3 144/5/3
f 148/11/3 140/11/3 139/11/3
f 149/11/3 140/11/3 148/11/3
f 150/7/3 145/7/3 144/7/3
f 150/7/3 146/7/3 145/7/3
f 151/9/3 147/9/3 146/9/3
f 151/7/3 146/7/3 150/7/3
f 152/9/3 147/9/3 151/9/3
f 153/7/4 154/7/4 158/7/4
f 154/6/4 155/6/4 159/6/4
f 158/7/4 154/7/4 159/7/4
f 155/9/4 156/9/4 160/9/4
f 159/6/4 155/6/4 160/6/4
f 160/9/4 156/9/4 161/9/4
f 157/2/4 158/2/4 164/2/4
f 158/3/4 159/3/4 165/3/4
f 164/2/4 158/2/4 165/2/4
f 159/10/4 160/10/4 166/10/4
f 165/3/4 159/3/4 166/3/4
f 160/8/4 161/8/4 167/8/4
f 166/10/4 160/10/4 167/10/4
f 161/14/4 162/14/4 168/14/4
f 167/8/4 161/8/4 168/8/4
f 162/9/4 163/9/4 169/9/4
f 168/14/4 162/14/4 169/14/4
f 169/9/4 163/9/4 170/9/4
f 167/15/4 168/15/4 175/15/4
f 168/15/4 169/15/4 175/15/4
f 175/15/4 169/15/4 176/15/4
f 169/13/4 170/13/4 177/13/4
f 176/15/4 169/15/4 177/15/4
f 170/14/4 171/14/4 178/14/4
f 177/13/4 170/13/4 178/13/4
f 171/11/4 172/11/4 179/11/4
f 178/14/4 171/14/4 179/14/4
f 179/11/4 172/11/4 180/11/4
f 173/2/4 174/2/4 181/2/4
f 181/2/4 174/2/4 182/2/4
f 176/14/4 177/14/4 185/14/4
f 177/11/4 178/11/4 186/11/4
f 185/14/4 177/14/4 186/14/4
f 186/11/4 178/11/4 187/11/4
f 183/7/4 184/7/4 188/7/4
f 182/7/4 183/7/4 188/7/4
f 184/9/4 185/9/4 189/9/4
f 188/7/4 184/7/4 189/7/4
f 189/9/4 185/9/4 190/9/4
f 191/1/4 192/1/4 195/1/4
f 192/7/4 193/7/4 196/7/4
f 195/1/4 192/1/4 196/1/4
f 193/10/4 194/10/4 197/10/4
f 196/7/4 193/7/4 197/7/4
f 197/10/4 194/10/4 198/10/4
f 196/7/4 197/7/4 200/7/4
f 197/12/4 198/12/4 201/12/4
f 200/7/4 197/7/4 201/7/4
f 198/15/4 199/15/4 202/15/4
f 201/12/4 198/12/4 202/12/4
f 202/15/4 199/15/4 203/15/4
f 207/12/5 205/12/5 204/12/5
f 208/12/5 205/12/5 207/12/5
f 210/2/5 207/2/5 206/2/5
f 211/8/5 208/8/5 207/8/5
f 211/2/5 207/2/5 210/2/5
f 212/2/5 209/2/5 208/2/5
f 212/8/5 208/8/5 211/8/5
f 213/2/5 209/2/5 212/2/5
f 214/1/5 212/1/5 211/1/5
f 215/1/5 212/1/5 214/1/5
f 219/14/5 217/14/5 216/14/5
f 220/14/5 217/14/5 219/14/5
f 223/7/5 219/7/5 218/7/5
f 224/7/5 219/7/5 223/7/5
f 226/7/5 222/7/5 221/7/5
f 227/7/5 222/7/5 226/7/5
f 228/7/5 226/7/5 225/7/5
f 229/7/5 226/7/5 228/7/5
f 232/7/5 231/7/5 230/7/5
f 233/7/5 231/7/5 232/7/5
f 234/8/6 235/8/6 236/8/6
f 236/8/6 235/8/6 237/8/6
f 238/10/6 239/10/6 240/10/6
f 240/10/6 239/10/6 241/10/6
f 242/8/6 243/8/6 246/8/6
f 246/8/6 243/8/6 247/8/6
f 244/9/6 245/9/6 250/9/6
f 250/9/6 245/9/6 251/9/6
f 248/9/6 249/9/6 253/9/6
f 253/9/6 249/9/6 254/9/6
f 252/15/6 253/15/6 255/15/6
f 255/15/6 253/15/6 256/15/6
f 257/14/6 258/14/6 259/14/6
f 259/14/6 258/14/6 260/14/6
f 261/9/6 262/9/6 265/9/6
f 265/9/6 262/9/6 266/9/6
f 263/11/6 264/11/6 267/11/6
f 267/11/6 264/11/6 268/11/6
f 269/11/6 270/11/6 271/11/6
f 271/11/6 270/11/6 272/11/6
