# MagicaVoxel @ Ephtracy

# material
mtllib Fire Frame 13.mtl
usemtl palette

# normals
vn -1 0 0
vn 1 0 0
vn 0 0 1
vn 0 0 -1
vn 0 -1 0
vn 0 1 0

# texcoords
vt 0.00195313 0.5
vt 0.00976563 0.5
vt 0.0292969 0.5
vt 0.0332031 0.5
vt 0.0488281 0.5
vt 0.0683594 0.5
vt 0.0722656 0.5
vt 0.0761719 0.5
vt 0.0800781 0.5
vt 0.0957031 0.5

# verts
v -2 1 0.5
v -2 1 -0.5
v -2 2 0.5
v -2 2 -0.5
v -1 0 0.5
v -1 0 -0.5
v -1 1 0.5
v -1 1 -0.5
v -1 2 0.5
v -1 2 -0.5
v -1 3 0.5
v -1 3 -0.5
v 0 0 1.5
v 0 0 0.5
v 0 0 -0.5
v 0 0 -1.5
v 0 1 1.5
v 0 1 0.5
v 0 1 -0.5
v 0 1 -1.5
v 0 2 -0.5
v 0 2 -1.5
v 0 3 0.5
v 0 3 -0.5
v 0 4 0.5
v 0 4 -0.5
v 1 2 -0.5
v 1 2 -1.5
v 1 3 -0.5
v 1 3 -1.5
v 1 0 1.5
v 1 0 0.5
v 1 0 -0.5
v 1 0 -1.5
v 1 1 1.5
v 1 1 0.5
v 1 1 -0.5
v 1 1 -1.5
v 1 2 -0.5
v 1 2 -1.5
v 1 3 0.5
v 1 3 -0.5
v 1 4 0.5
v 1 4 -0.5
v 2 0 0.5
v 2 0 -0.5
v 2 1 0.5
v 2 1 -0.5
v 2 2 0.5
v 2 2 -0.5
v 2 2 -1.5
v 2 3 0.5
v 2 3 -0.5
v 2 3 -1.5
v 3 1 0.5
v 3 1 -0.5
v 3 2 0.5
v 3 2 -0.5
v 0 0 1.5
v 0 1 1.5
v 1 0 1.5
v 1 1 1.5
v -2 1 0.5
v -2 2 0.5
v -1 0 0.5
v -1 1 0.5
v -1 2 0.5
v -1 3 0.5
v 0 0 0.5
v 0 1 0.5
v 0 2 0.5
v 0 3 0.5
v 0 4 0.5
v 1 0 0.5
v 1 1 0.5
v 1 2 0.5
v 1 3 0.5
v 1 4 0.5
v 2 0 0.5
v 2 1 0.5
v 2 2 0.5
v 2 3 0.5
v 3 1 0.5
v 3 2 0.5
v -2 1 -0.5
v -2 2 -0.5
v -1 0 -0.5
v -1 1 -0.5
v -1 2 -0.5
v -1 3 -0.5
v 0 0 -0.5
v 0 1 -0.5
v 0 2 -0.5
v 0 3 -0.5
v 0 4 -0.5
v 1 0 -0.5
v 1 1 -0.5
v 1 2 -0.5
v 1 3 -0.5
v 1 4 -0.5
v 2 0 -0.5
v 2 1 -0.5
v 2 2 -0.5
v 3 1 -0.5
v 3 2 -0.5
v 0 0 -1.5
v 0 1 -1.5
v 0 2 -1.5
v 1 0 -1.5
v 1 1 -1.5
v 1 2 -1.5
v 1 3 -1.5
v 2 2 -1.5
v 2 3 -1.5
v 0 0 1.5
v 1 0 1.5
v -1 0 0.5
v 0 0 0.5
v 1 0 0.5
v 2 0 0.5
v -1 0 -0.5
v 0 0 -0.5
v 1 0 -0.5
v 2 0 -0.5
v 0 0 -1.5
v 1 0 -1.5
v -2 1 0.5
v -1 1 0.5
v 2 1 0.5
v 3 1 0.5
v -2 1 -0.5
v -1 1 -0.5
v 2 1 -0.5
v 3 1 -0.5
v 1 2 -0.5
v 2 2 -0.5
v 1 2 -1.5
v 2 2 -1.5
v 0 1 1.5
v 1 1 1.5
v 0 1 0.5
v 1 1 0.5
v -2 2 0.5
v -1 2 0.5
v 2 2 0.5
v 3 2 0.5
v -2 2 -0.5
v -1 2 -0.5
v 0 2 -0.5
v 1 2 -0.5
v 2 2 -0.5
v 3 2 -0.5
v 0 2 -1.5
v 1 2 -1.5
v -1 3 0.5
v 0 3 0.5
v 1 3 0.5
v 2 3 0.5
v -1 3 -0.5
v 0 3 -0.5
v 1 3 -0.5
v 2 3 -0.5
v 1 3 -1.5
v 2 3 -1.5
v 0 4 0.5
v 1 4 0.5
v 0 4 -0.5
v 1 4 -0.5

# faces
f 3/6/1 2/6/1 1/6/1
f 4/6/1 2/6/1 3/6/1
f 7/1/1 6/1/1 5/1/1
f 8/1/1 6/1/1 7/1/1
f 11/6/1 10/6/1 9/6/1
f 12/6/1 10/6/1 11/6/1
f 17/2/1 14/2/1 13/2/1
f 18/2/1 14/2/1 17/2/1
f 19/3/1 16/3/1 15/3/1
f 20/3/1 16/3/1 19/3/1
f 21/5/1 20/5/1 19/5/1
f 22/5/1 20/5/1 21/5/1
f 25/6/1 24/6/1 23/6/1
f 26/6/1 24/6/1 25/6/1
f 29/5/1 28/5/1 27/5/1
f 30/5/1 28/5/1 29/5/1
f 31/2/2 32/2/2 35/2/2
f 35/2/2 32/2/2 36/2/2
f 33/3/2 34/3/2 37/3/2
f 37/3/2 34/3/2 38/3/2
f 37/5/2 38/5/2 39/5/2
f 39/5/2 38/5/2 40/5/2
f 41/6/2 42/6/2 43/6/2
f 43/6/2 42/6/2 44/6/2
f 45/1/2 46/1/2 47/1/2
f 47/1/2 46/1/2 48/1/2
f 49/8/2 50/8/2 52/8/2
f 50/5/2 51/5/2 53/5/2
f 52/8/2 50/8/2 53/8/2
f 53/5/2 51/5/2 54/5/2
f 55/6/2 56/6/2 57/6/2
f 57/6/2 56/6/2 58/6/2
f 61/2/3 60/2/3 59/2/3
f 62/2/3 60/2/3 61/2/3
f 66/6/3 64/6/3 63/6/3
f 67/6/3 64/6/3 66/6/3
f 69/1/3 66/1/3 65/1/3
f 70/8/3 67/8/3 66/8/3
f 70/1/3 66/1/3 69/1/3
f 71/6/3 68/6/3 67/6/3
f 71/8/3 67/8/3 70/8/3
f 72/6/3 68/6/3 71/6/3
f 75/7/3 71/7/3 70/7/3
f 76/9/3 72/9/3 71/9/3
f 76/7/3 71/7/3 75/7/3
f 77/6/3 73/6/3 72/6/3
f 77/9/3 72/9/3 76/9/3
f 78/6/3 73/6/3 77/6/3
f 79/1/3 75/1/3 74/1/3
f 80/4/3 76/4/3 75/4/3
f 80/1/3 75/1/3 79/1/3
f 81/8/3 77/8/3 76/8/3
f 81/4/3 76/4/3 80/4/3
f 82/8/3 77/8/3 81/8/3
f 83/6/3 81/6/3 80/6/3
f 84/6/3 81/6/3 83/6/3
f 85/6/4 86/6/4 88/6/4
f 88/6/4 86/6/4 89/6/4
f 87/1/4 88/1/4 91/1/4
f 88/8/4 89/8/4 92/8/4
f 91/1/4 88/1/4 92/1/4
f 89/6/4 90/6/4 93/6/4
f 92/8/4 89/8/4 93/8/4
f 93/6/4 90/6/4 94/6/4
f 93/9/4 94/9/4 98/9/4
f 94/6/4 95/6/4 99/6/4
f 98/9/4 94/9/4 99/9/4
f 99/6/4 95/6/4 100/6/4
f 96/1/4 97/1/4 101/1/4
f 97/4/4 98/4/4 102/4/4
f 101/1/4 97/1/4 102/1/4
f 102/4/4 98/4/4 103/4/4
f 102/6/4 103/6/4 104/6/4
f 104/6/4 103/6/4 105/6/4
f 106/3/4 107/3/4 109/3/4
f 107/5/4 108/5/4 110/5/4
f 109/3/4 107/3/4 110/3/4
f 110/5/4 108/5/4 111/5/4
f 111/5/4 112/5/4 113/5/4
f 113/5/4 112/5/4 114/5/4
f 118/2/5 116/2/5 115/2/5
f 119/2/5 116/2/5 118/2/5
f 121/1/5 118/1/5 117/1/5
f 122/10/5 119/10/5 118/10/5
f 122/1/5 118/1/5 121/1/5
f 123/1/5 120/1/5 119/1/5
f 123/10/5 119/10/5 122/10/5
f 124/1/5 120/1/5 123/1/5
f 125/3/5 123/3/5 122/3/5
f 126/3/5 123/3/5 125/3/5
f 131/6/5 128/6/5 127/6/5
f 132/6/5 128/6/5 131/6/5
f 133/6/5 130/6/5 129/6/5
f 134/6/5 130/6/5 133/6/5
f 137/5/5 136/5/5 135/5/5
f 138/5/5 136/5/5 137/5/5
f 139/2/6 140/2/6 141/2/6
f 141/2/6 140/2/6 142/2/6
f 143/6/6 144/6/6 147/6/6
f 147/6/6 144/6/6 148/6/6
f 145/6/6 146/6/6 151/6/6
f 151/6/6 146/6/6 152/6/6
f 149/5/6 150/5/6 153/5/6
f 153/5/6 150/5/6 154/5/6
f 155/6/6 156/6/6 159/6/6
f 159/6/6 156/6/6 160/6/6
f 157/8/6 158/8/6 161/8/6
f 161/8/6 158/8/6 162/8/6
f 161/5/6 162/5/6 163/5/6
f 163/5/6 162/5/6 164/5/6
f 165/6/6 166/6/6 167/6/6
f 167/6/6 166/6/6 168/6/6
