# MagicaVoxel @ Ephtracy

# material
mtllib Fire Frame 10.mtl
usemtl palette

# normals
vn -1 0 0
vn 1 0 0
vn 0 0 1
vn 0 0 -1
vn 0 -1 0
vn 0 1 0

# texcoords
vt 0.00195313 0.5
vt 0.00976563 0.5
vt 0.0292969 0.5
vt 0.0332031 0.5
vt 0.0410156 0.5
vt 0.0449219 0.5
vt 0.0488281 0.5
vt 0.0527344 0.5
vt 0.0566406 0.5
vt 0.0605469 0.5
vt 0.0644531 0.5
vt 0.0683594 0.5
vt 0.0722656 0.5
vt 0.0761719 0.5
vt 0.0800781 0.5
vt 0.0839844 0.5
vt 0.0957031 0.5

# verts
v -2 1 0.5
v -2 1 -0.5
v -2 2 0.5
v -2 2 -0.5
v -2 3 0.5
v -2 3 -0.5
v -2 4 0.5
v -2 4 -0.5
v -1 0 0.5
v -1 0 -0.5
v -1 1 1.5
v -1 1 0.5
v -1 1 -0.5
v -1 1 -1.5
v -1 2 1.5
v -1 2 0.5
v -1 2 -0.5
v -1 2 -1.5
v -1 3 1.5
v -1 3 0.5
v -1 3 -0.5
v -1 3 -1.5
v -1 4 1.5
v -1 4 0.5
v -1 4 -0.5
v -1 5 0.5
v -1 5 -0.5
v -1 6 0.5
v -1 6 -0.5
v 0 0 1.5
v 0 0 0.5
v 0 0 -0.5
v 0 0 -1.5
v 0 1 1.5
v 0 1 0.5
v 0 1 -0.5
v 0 1 -1.5
v 0 6 0.5
v 0 6 -0.5
v 0 7 0.5
v 0 7 -0.5
v 0 2 -0.5
v 0 2 -1.5
v 0 3 1.5
v 0 3 0.5
v 0 3 -0.5
v 0 3 -1.5
v 0 4 1.5
v 0 4 0.5
v 1 0 1.5
v 1 0 0.5
v 1 0 -0.5
v 1 0 -1.5
v 1 1 1.5
v 1 1 0.5
v 1 1 -0.5
v 1 1 -1.5
v 1 2 1.5
v 1 2 0.5
v 1 2 -0.5
v 1 2 -1.5
v 1 3 1.5
v 1 3 0.5
v 1 5 0.5
v 1 5 -0.5
v 1 7 0.5
v 1 7 -0.5
v 2 0 0.5
v 2 0 -0.5
v 2 1 1.5
v 2 1 0.5
v 2 1 -0.5
v 2 2 1.5
v 2 2 0.5
v 2 4 0.5
v 2 4 -0.5
v 2 5 0.5
v 2 5 -0.5
v 3 1 0.5
v 3 1 -0.5
v 3 2 0.5
v 3 2 -0.5
v 3 3 0.5
v 3 3 -0.5
v 3 4 0.5
v 3 4 -0.5
v -1 1 1.5
v -1 2 1.5
v -1 3 1.5
v -1 4 1.5
v 0 0 1.5
v 0 1 1.5
v 0 2 1.5
v 0 3 1.5
v 0 4 1.5
v 1 0 1.5
v 1 1 1.5
v 1 2 1.5
v 1 3 1.5
v 2 1 1.5
v 2 2 1.5
v -2 1 0.5
v -2 2 0.5
v -2 3 0.5
v -2 4 0.5
v -1 0 0.5
v -1 1 0.5
v -1 2 0.5
v -1 3 0.5
v -1 4 0.5
v -1 5 0.5
v -1 6 0.5
v 0 0 0.5
v 0 1 0.5
v 0 3 0.5
v 0 4 0.5
v 0 5 0.5
v 0 6 0.5
v 0 7 0.5
v 1 0 0.5
v 1 1 0.5
v 1 2 0.5
v 1 3 0.5
v 1 4 0.5
v 1 5 0.5
v 1 7 0.5
v 2 0 0.5
v 2 1 0.5
v 2 2 0.5
v 2 3 0.5
v 2 4 0.5
v 2 5 0.5
v 3 1 0.5
v 3 2 0.5
v 3 3 0.5
v 3 4 0.5
v -2 1 -0.5
v -2 2 -0.5
v -2 3 -0.5
v -2 4 -0.5
v -1 0 -0.5
v -1 1 -0.5
v -1 2 -0.5
v -1 3 -0.5
v -1 4 -0.5
v -1 5 -0.5
v -1 6 -0.5
v 0 0 -0.5
v 0 1 -0.5
v 0 2 -0.5
v 0 3 -0.5
v 0 4 -0.5
v 0 5 -0.5
v 0 6 -0.5
v 0 7 -0.5
v 1 0 -0.5
v 1 1 -0.5
v 1 2 -0.5
v 1 3 -0.5
v 1 4 -0.5
v 1 5 -0.5
v 1 7 -0.5
v 2 0 -0.5
v 2 1 -0.5
v 2 2 -0.5
v 2 3 -0.5
v 2 4 -0.5
v 2 5 -0.5
v 3 1 -0.5
v 3 2 -0.5
v 3 3 -0.5
v 3 4 -0.5
v -1 1 -1.5
v -1 2 -1.5
v -1 3 -1.5
v 0 0 -1.5
v 0 1 -1.5
v 0 2 -1.5
v 0 3 -1.5
v 1 0 -1.5
v 1 1 -1.5
v 1 2 -1.5
v 0 0 1.5
v 1 0 1.5
v -1 0 0.5
v 0 0 0.5
v 1 0 0.5
v 2 0 0.5
v -1 0 -0.5
v 0 0 -0.5
v 1 0 -0.5
v 2 0 -0.5
v 0 0 -1.5
v 1 0 -1.5
v -1 1 1.5
v 0 1 1.5
v 1 1 1.5
v 2 1 1.5
v -2 1 0.5
v -1 1 0.5
v 0 1 0.5
v 1 1 0.5
v 2 1 0.5
v 3 1 0.5
v -2 1 -0.5
v -1 1 -0.5
v 0 1 -0.5
v 2 1 -0.5
v 3 1 -0.5
v -1 1 -1.5
v 0 1 -1.5
v 1 2 1.5
v 2 2 1.5
v 1 2 0.5
v 2 2 0.5
v 0 2 -0.5
v 1 2 -0.5
v 0 2 -1.5
v 1 2 -1.5
v 0 3 1.5
v 1 3 1.5
v 0 3 0.5
v 1 3 0.5
v -1 3 -0.5
v 0 3 -0.5
v -1 3 -1.5
v 0 3 -1.5
v -1 4 1.5
v 0 4 1.5
v -2 4 0.5
v -1 4 0.5
v 0 4 0.5
v 2 4 0.5
v 3 4 0.5
v -2 4 -0.5
v -1 4 -0.5
v 2 4 -0.5
v 3 4 -0.5
v 1 5 0.5
v 2 5 0.5
v 1 5 -0.5
v 2 5 -0.5
v -1 6 0.5
v 0 6 0.5
v -1 6 -0.5
v 0 6 -0.5
v 0 7 0.5
v 1 7 0.5
v 0 7 -0.5
v 1 7 -0.5

# faces
f 3/3/1 2/3/1 1/3/1
f 4/3/1 2/3/1 3/3/1
f 5/10/1 4/10/1 3/10/1
f 6/10/1 4/10/1 5/10/1
f 7/12/1 6/12/1 5/12/1
f 8/12/1 6/12/1 7/12/1
f 12/1/1 10/1/1 9/1/1
f 13/1/1 10/1/1 12/1/1
f 15/9/1 12/9/1 11/9/1
f 16/9/1 12/9/1 15/9/1
f 17/11/1 14/11/1 13/11/1
f 18/11/1 14/11/1 17/11/1
f 19/10/1 16/10/1 15/10/1
f 20/10/1 16/10/1 19/10/1
f 21/7/1 18/7/1 17/7/1
f 22/7/1 18/7/1 21/7/1
f 23/7/1 20/7/1 19/7/1
f 24/7/1 20/7/1 23/7/1
f 26/13/1 25/13/1 24/13/1
f 27/13/1 25/13/1 26/13/1
f 28/12/1 27/12/1 26/12/1
f 29/12/1 27/12/1 28/12/1
f 34/6/1 31/6/1 30/6/1
f 35/6/1 31/6/1 34/6/1
f 36/3/1 33/3/1 32/3/1
f 37/3/1 33/3/1 36/3/1
f 40/12/1 39/12/1 38/12/1
f 41/12/1 39/12/1 40/12/1
f 42/7/2 43/7/2 46/7/2
f 46/7/2 43/7/2 47/7/2
f 44/7/2 45/7/2 48/7/2
f 48/7/2 45/7/2 49/7/2
f 50/6/2 51/6/2 54/6/2
f 54/6/2 51/6/2 55/6/2
f 52/3/2 53/3/2 56/3/2
f 56/3/2 53/3/2 57/3/2
f 56/7/2 57/7/2 60/7/2
f 60/7/2 57/7/2 61/7/2
f 58/13/2 59/13/2 62/13/2
f 62/13/2 59/13/2 63/13/2
f 64/12/2 65/12/2 66/12/2
f 66/12/2 65/12/2 67/12/2
f 68/2/2 69/2/2 71/2/2
f 71/2/2 69/2/2 72/2/2
f 70/9/2 71/9/2 73/9/2
f 73/9/2 71/9/2 74/9/2
f 75/15/2 76/15/2 77/15/2
f 77/15/2 76/15/2 78/15/2
f 79/9/2 80/9/2 81/9/2
f 81/9/2 80/9/2 82/9/2
f 81/10/2 82/10/2 83/10/2
f 83/10/2 82/10/2 84/10/2
f 83/12/2 84/12/2 85/12/2
f 85/12/2 84/12/2 86/12/2
f 92/9/3 88/9/3 87/9/3
f 93/10/3 89/10/3 88/10/3
f 93/9/3 88/9/3 92/9/3
f 94/7/3 90/7/3 89/7/3
f 94/10/3 89/10/3 93/10/3
f 95/7/3 90/7/3 94/7/3
f 96/6/3 92/6/3 91/6/3
f 97/10/3 93/10/3 92/10/3
f 97/6/3 92/6/3 96/6/3
f 98/13/3 94/13/3 93/13/3
f 98/10/3 93/10/3 97/10/3
f 99/13/3 94/13/3 98/13/3
f 100/9/3 98/9/3 97/9/3
f 101/9/3 98/9/3 100/9/3
f 107/3/3 103/3/3 102/3/3
f 108/10/3 104/10/3 103/10/3
f 108/3/3 103/3/3 107/3/3
f 109/12/3 105/12/3 104/12/3
f 109/10/3 104/10/3 108/10/3
f 110/12/3 105/12/3 109/12/3
f 113/1/3 107/1/3 106/1/3
f 114/1/3 107/1/3 113/1/3
f 116/13/3 111/13/3 110/13/3
f 117/12/3 112/12/3 111/12/3
f 117/13/3 111/13/3 116/13/3
f 118/12/3 112/12/3 117/12/3
f 123/13/3 116/13/3 115/13/3
f 124/7/3 117/7/3 116/7/3
f 124/13/3 116/13/3 123/13/3
f 125/12/3 119/12/3 118/12/3
f 125/7/3 117/7/3 124/7/3
f 125/12/3 118/12/3 117/12/3
f 126/12/3 119/12/3 125/12/3
f 127/2/3 121/2/3 120/2/3
f 128/2/3 121/2/3 127/2/3
f 129/7/3 123/7/3 122/7/3
f 130/17/3 124/17/3 123/17/3
f 130/7/3 123/7/3 129/7/3
f 131/15/3 125/15/3 124/15/3
f 131/17/3 124/17/3 130/17/3
f 132/15/3 125/15/3 131/15/3
f 133/9/3 129/9/3 128/9/3
f 134/10/3 130/10/3 129/10/3
f 134/9/3 129/9/3 133/9/3
f 135/12/3 131/12/3 130/12/3
f 135/10/3 130/10/3 134/10/3
f 136/12/3 131/12/3 135/12/3
f 137/3/4 138/3/4 142/3/4
f 138/10/4 139/10/4 143/10/4
f 142/3/4 138/3/4 143/3/4
f 139/12/4 140/12/4 144/12/4
f 143/10/4 139/10/4 144/10/4
f 144/12/4 140/12/4 145/12/4
f 141/1/4 142/1/4 148/1/4
f 148/1/4 142/1/4 149/1/4
f 144/16/4 145/16/4 151/16/4
f 145/13/4 146/13/4 152/13/4
f 151/16/4 145/16/4 152/16/4
f 146/12/4 147/12/4 153/12/4
f 152/13/4 146/13/4 153/13/4
f 153/12/4 147/12/4 154/12/4
f 150/6/4 151/6/4 158/6/4
f 151/13/4 152/13/4 159/13/4
f 158/6/4 151/6/4 159/6/4
f 152/7/4 153/7/4 160/7/4
f 159/13/4 152/13/4 160/13/4
f 154/12/4 155/12/4 161/12/4
f 160/7/4 153/7/4 161/7/4
f 153/12/4 154/12/4 161/12/4
f 161/12/4 155/12/4 162/12/4
f 156/2/4 157/2/4 163/2/4
f 157/14/4 158/14/4 164/14/4
f 163/2/4 157/2/4 164/2/4
f 158/7/4 159/7/4 165/7/4
f 164/14/4 158/14/4 165/14/4
f 159/17/4 160/17/4 166/17/4
f 165/7/4 159/7/4 166/7/4
f 160/15/4 161/15/4 167/15/4
f 166/17/4 160/17/4 167/17/4
f 167/15/4 161/15/4 168/15/4
f 164/9/4 165/9/4 169/9/4
f 165/10/4 166/10/4 170/10/4
f 169/9/4 165/9/4 170/9/4
f 166/12/4 167/12/4 171/12/4
f 170/10/4 166/10/4 171/10/4
f 171/12/4 167/12/4 172/12/4
f 173/11/4 174/11/4 177/11/4
f 174/7/4 175/7/4 178/7/4
f 177/11/4 174/11/4 178/11/4
f 178/7/4 175/7/4 179/7/4
f 176/3/4 177/3/4 180/3/4
f 177/7/4 178/7/4 181/7/4
f 180/3/4 177/3/4 181/3/4
f 181/7/4 178/7/4 182/7/4
f 186/6/5 184/6/5 183/6/5
f 187/6/5 184/6/5 186/6/5
f 189/1/5 186/1/5 185/1/5
f 190/6/5 187/6/5 186/6/5
f 190/1/5 186/1/5 189/1/5
f 191/2/5 188/2/5 187/2/5
f 191/6/5 187/6/5 190/6/5
f 192/2/5 188/2/5 191/2/5
f 193/3/5 191/3/5 190/3/5
f 194/3/5 191/3/5 193/3/5
f 200/9/5 196/9/5 195/9/5
f 201/9/5 196/9/5 200/9/5
f 202/9/5 198/9/5 197/9/5
f 203/9/5 198/9/5 202/9/5
f 205/3/5 200/3/5 199/3/5
f 206/3/5 200/3/5 205/3/5
f 208/9/5 204/9/5 203/9/5
f 209/9/5 204/9/5 208/9/5
f 210/11/5 207/11/5 206/11/5
f 211/11/5 207/11/5 210/11/5
f 212/9/6 213/9/6 214/9/6
f 214/9/6 213/9/6 215/9/6
f 216/7/6 217/7/6 218/7/6
f 218/7/6 217/7/6 219/7/6
f 220/13/6 221/13/6 222/13/6
f 222/13/6 221/13/6 223/13/6
f 224/7/6 225/7/6 226/7/6
f 226/7/6 225/7/6 227/7/6
f 228/7/6 229/7/6 231/7/6
f 231/7/6 229/7/6 232/7/6
f 230/12/6 231/12/6 235/12/6
f 235/12/6 231/12/6 236/12/6
f 233/12/6 234/12/6 237/12/6
f 237/12/6 234/12/6 238/12/6
f 239/15/6 240/15/6 241/15/6
f 241/15/6 240/15/6 242/15/6
f 243/12/6 244/12/6 245/12/6
f 245/12/6 244/12/6 246/12/6
f 247/12/6 248/12/6 249/12/6
f 249/12/6 248/12/6 250/12/6
