# MagicaVoxel @ Ephtracy

# material
mtllib Candle.mtl
usemtl palette

# normals
vn -1 0 0
vn 1 0 0
vn 0 0 1
vn 0 0 -1
vn 0 -1 0
vn 0 1 0

# texcoords
vt 0.962891 0.5
vt 0.986328 0.5

# verts
v -4.5 0 -0.5
v -4.5 0 -1.5
v -4.5 2 -0.5
v -4.5 2 -1.5
v -3.5 0 0.5
v -3.5 0 -0.5
v -3.5 1 0.5
v -3.5 1 -0.5
v -3.5 2 -0.5
v -3.5 2 -1.5
v -3.5 4 -0.5
v -3.5 4 -1.5
v -2.5 0 2.5
v -2.5 0 0.5
v -2.5 0 -1.5
v -2.5 0 -2.5
v -2.5 1 0.5
v -2.5 1 -0.5
v -2.5 4 -0.5
v -2.5 4 -1.5
v -2.5 11 2.5
v -2.5 11 -2.5
v -1.5 0 -2.5
v -1.5 0 -3.5
v -1.5 1 -2.5
v -1.5 1 -3.5
v -1.5 9 3.5
v -1.5 9 2.5
v -1.5 9 -2.5
v -1.5 9 -3.5
v -1.5 10 3.5
v -1.5 10 2.5
v -1.5 10 -2.5
v -1.5 10 -3.5
v -0.5 0 3.5
v -0.5 0 2.5
v -0.5 3 3.5
v -0.5 3 2.5
v -0.5 5 -2.5
v -0.5 5 -3.5
v -0.5 7 3.5
v -0.5 7 2.5
v -0.5 8 -2.5
v -0.5 8 -3.5
v -0.5 9 3.5
v -0.5 9 2.5
v -0.5 11 0.5
v -0.5 11 -0.5
v -0.5 13 0.5
v -0.5 13 -0.5
v 0.5 0 4.5
v 0.5 0 3.5
v 0.5 1 4.5
v 0.5 1 3.5
v 0.5 8 -1.5
v 0.5 8 -2.5
v 0.5 9 2.5
v 0.5 9 1.5
v 0.5 10 1.5
v 0.5 10 0.5
v 0.5 10 -0.5
v 0.5 10 -1.5
v 0.5 11 2.5
v 0.5 11 0.5
v 0.5 11 -0.5
v 0.5 11 -2.5
v 1.5 0 -2.5
v 1.5 0 -3.5
v 1.5 2 -2.5
v 1.5 2 -3.5
v -1.5 10 2.5
v -1.5 10 1.5
v -1.5 10 -1.5
v -1.5 10 -2.5
v -1.5 11 2.5
v -1.5 11 1.5
v -1.5 11 -1.5
v -1.5 11 -2.5
v -0.5 0 -2.5
v -0.5 0 -3.5
v -0.5 1 -2.5
v -0.5 1 -3.5
v -0.5 8 -1.5
v -0.5 8 -2.5
v -0.5 9 3.5
v -0.5 9 1.5
v -0.5 9 -2.5
v -0.5 9 -3.5
v -0.5 10 3.5
v -0.5 10 1.5
v -0.5 10 0.5
v -0.5 10 -0.5
v -0.5 10 -1.5
v -0.5 10 -3.5
v -0.5 11 1.5
v -0.5 11 0.5
v -0.5 11 -0.5
v -0.5 11 -1.5
v 0.5 0 3.5
v 0.5 0 2.5
v 0.5 1 3.5
v 0.5 3 3.5
v 0.5 3 2.5
v 0.5 5 -2.5
v 0.5 5 -3.5
v 0.5 7 3.5
v 0.5 7 2.5
v 0.5 8 -2.5
v 0.5 8 -3.5
v 0.5 9 3.5
v 0.5 9 2.5
v 0.5 11 0.5
v 0.5 11 -0.5
v 0.5 13 0.5
v 0.5 13 -0.5
v 1.5 0 4.5
v 1.5 0 3.5
v 1.5 1 4.5
v 1.5 1 3.5
v 2.5 0 2.5
v 2.5 0 0.5
v 2.5 0 -0.5
v 2.5 0 -1.5
v 2.5 1 0.5
v 2.5 1 -0.5
v 2.5 1 -2.5
v 2.5 1 -3.5
v 2.5 2 -2.5
v 2.5 2 -3.5
v 2.5 5 -1.5
v 2.5 5 -2.5
v 2.5 11 2.5
v 2.5 11 -2.5
v 3.5 0 0.5
v 3.5 0 -0.5
v 3.5 0 -1.5
v 3.5 0 -3.5
v 3.5 1 0.5
v 3.5 1 -0.5
v 3.5 1 -2.5
v 3.5 1 -3.5
v 3.5 5 -1.5
v 3.5 5 -2.5
v 0.5 0 4.5
v 0.5 1 4.5
v 1.5 0 4.5
v 1.5 1 4.5
v -1.5 9 3.5
v -1.5 10 3.5
v -0.5 0 3.5
v -0.5 3 3.5
v -0.5 7 3.5
v -0.5 9 3.5
v -0.5 10 3.5
v 0.5 0 3.5
v 0.5 1 3.5
v 0.5 3 3.5
v 0.5 7 3.5
v 0.5 9 3.5
v -2.5 0 2.5
v -2.5 11 2.5
v -1.5 9 2.5
v -1.5 10 2.5
v -1.5 11 2.5
v -0.5 0 2.5
v -0.5 3 2.5
v -0.5 7 2.5
v -0.5 9 2.5
v 0.5 0 2.5
v 0.5 3 2.5
v 0.5 7 2.5
v 0.5 9 2.5
v 0.5 11 2.5
v 2.5 0 2.5
v 2.5 11 2.5
v -1.5 10 1.5
v -1.5 11 1.5
v -0.5 9 1.5
v -0.5 10 1.5
v -0.5 11 1.5
v 0.5 9 1.5
v 0.5 10 1.5
v -3.5 0 0.5
v -3.5 1 0.5
v -2.5 0 0.5
v -2.5 1 0.5
v -0.5 10 0.5
v -0.5 11 0.5
v -0.5 13 0.5
v 0.5 10 0.5
v 0.5 11 0.5
v 0.5 13 0.5
v 2.5 0 0.5
v 2.5 1 0.5
v 3.5 0 0.5
v 3.5 1 0.5
v -4.5 0 -0.5
v -4.5 2 -0.5
v -3.5 0 -0.5
v -3.5 1 -0.5
v -3.5 2 -0.5
v -3.5 4 -0.5
v -2.5 1 -0.5
v -2.5 4 -0.5
v 2.5 0 -1.5
v 2.5 5 -1.5
v 3.5 0 -1.5
v 3.5 5 -1.5
v 0.5 0 3.5
v 0.5 1 3.5
v 1.5 0 3.5
v 1.5 1 3.5
v -0.5 10 -0.5
v -0.5 11 -0.5
v -0.5 13 -0.5
v 0.5 10 -0.5
v 0.5 11 -0.5
v 0.5 13 -0.5
v 2.5 0 -0.5
v 2.5 1 -0.5
v 3.5 0 -0.5
v 3.5 1 -0.5
v -4.5 0 -1.5
v -4.5 2 -1.5
v -3.5 2 -1.5
v -3.5 4 -1.5
v -2.5 0 -1.5
v -2.5 4 -1.5
v -1.5 10 -1.5
v -1.5 11 -1.5
v -0.5 8 -1.5
v -0.5 10 -1.5
v -0.5 11 -1.5
v 0.5 8 -1.5
v 0.5 10 -1.5
v -2.5 0 -2.5
v -2.5 11 -2.5
v -1.5 0 -2.5
v -1.5 1 -2.5
v -1.5 9 -2.5
v -1.5 10 -2.5
v -1.5 11 -2.5
v -0.5 0 -2.5
v -0.5 1 -2.5
v -0.5 5 -2.5
v -0.5 8 -2.5
v -0.5 9 -2.5
v 0.5 5 -2.5
v 0.5 8 -2.5
v 0.5 11 -2.5
v 1.5 0 -2.5
v 1.5 2 -2.5
v 2.5 1 -2.5
v 2.5 2 -2.5
v 2.5 5 -2.5
v 2.5 11 -2.5
v 3.5 1 -2.5
v 3.5 5 -2.5
v -1.5 0 -3.5
v -1.5 1 -3.5
v -1.5 9 -3.5
v -1.5 10 -3.5
v -0.5 0 -3.5
v -0.5 1 -3.5
v -0.5 5 -3.5
v -0.5 8 -3.5
v -0.5 9 -3.5
v -0.5 10 -3.5
v 0.5 5 -3.5
v 0.5 8 -3.5
v 1.5 0 -3.5
v 1.5 2 -3.5
v 2.5 1 -3.5
v 2.5 2 -3.5
v 3.5 0 -3.5
v 3.5 1 -3.5
v 0.5 0 4.5
v 1.5 0 4.5
v -0.5 0 3.5
v 0.5 0 3.5
v 1.5 0 3.5
v -2.5 0 2.5
v -0.5 0 2.5
v 0.5 0 2.5
v 2.5 0 2.5
v -3.5 0 0.5
v -2.5 0 0.5
v 2.5 0 0.5
v 3.5 0 0.5
v -4.5 0 -0.5
v -3.5 0 -0.5
v 2.5 0 -0.5
v 3.5 0 -0.5
v -4.5 0 -1.5
v -2.5 0 -1.5
v 2.5 0 -1.5
v 3.5 0 -1.5
v -2.5 0 -2.5
v -1.5 0 -2.5
v -0.5 0 -2.5
v 1.5 0 -2.5
v -1.5 0 -3.5
v -0.5 0 -3.5
v 1.5 0 -3.5
v 3.5 0 -3.5
v -0.5 5 -2.5
v 0.5 5 -2.5
v -0.5 5 -3.5
v 0.5 5 -3.5
v -0.5 7 3.5
v 0.5 7 3.5
v -0.5 7 2.5
v 0.5 7 2.5
v -1.5 9 3.5
v -0.5 9 3.5
v -1.5 9 2.5
v -0.5 9 2.5
v -1.5 9 -2.5
v -0.5 9 -2.5
v -1.5 9 -3.5
v -0.5 9 -3.5
v 0.5 1 4.5
v 1.5 1 4.5
v 0.5 1 3.5
v 1.5 1 3.5
v -3.5 1 0.5
v -2.5 1 0.5
v 2.5 1 0.5
v 3.5 1 0.5
v -3.5 1 -0.5
v -2.5 1 -0.5
v 2.5 1 -0.5
v 3.5 1 -0.5
v -1.5 1 -2.5
v -0.5 1 -2.5
v 2.5 1 -2.5
v 3.5 1 -2.5
v -1.5 1 -3.5
v -0.5 1 -3.5
v 2.5 1 -3.5
v 3.5 1 -3.5
v -4.5 2 -0.5
v -3.5 2 -0.5
v -4.5 2 -1.5
v -3.5 2 -1.5
v 1.5 2 -2.5
v 2.5 2 -2.5
v 1.5 2 -3.5
v 2.5 2 -3.5
v -0.5 3 3.5
v 0.5 3 3.5
v -0.5 3 2.5
v 0.5 3 2.5
v -3.5 4 -0.5
v -2.5 4 -0.5
v -3.5 4 -1.5
v -2.5 4 -1.5
v 2.5 5 -1.5
v 3.5 5 -1.5
v 2.5 5 -2.5
v 3.5 5 -2.5
v -0.5 8 -1.5
v 0.5 8 -1.5
v -0.5 8 -2.5
v 0.5 8 -2.5
v -0.5 8 -3.5
v 0.5 8 -3.5
v -0.5 9 3.5
v 0.5 9 3.5
v 0.5 9 2.5
v -0.5 9 1.5
v 0.5 9 1.5
v -1.5 10 3.5
v -0.5 10 3.5
v -1.5 10 2.5
v -1.5 10 1.5
v -0.5 10 1.5
v 0.5 10 1.5
v -0.5 10 0.5
v 0.5 10 0.5
v -0.5 10 -0.5
v 0.5 10 -0.5
v -1.5 10 -1.5
v -0.5 10 -1.5
v 0.5 10 -1.5
v -1.5 10 -2.5
v -1.5 10 -3.5
v -0.5 10 -3.5
v -2.5 11 2.5
v -1.5 11 2.5
v 0.5 11 2.5
v 2.5 11 2.5
v -1.5 11 1.5
v -0.5 11 1.5
v -0.5 11 0.5
v 0.5 11 0.5
v -0.5 11 -0.5
v 0.5 11 -0.5
v -1.5 11 -1.5
v -0.5 11 -1.5
v -2.5 11 -2.5
v -1.5 11 -2.5
v 0.5 11 -2.5
v 2.5 11 -2.5
v -0.5 13 0.5
v 0.5 13 0.5
v -0.5 13 -0.5
v 0.5 13 -0.5

# faces
f 3/1/1 2/1/1 1/1/1
f 4/1/1 2/1/1 3/1/1
f 7/1/1 6/1/1 5/1/1
f 8/1/1 6/1/1 7/1/1
f 11/1/1 10/1/1 9/1/1
f 12/1/1 10/1/1 11/1/1
f 17/1/1 14/1/1 13/1/1
f 19/1/1 18/1/1 17/1/1
f 20/1/1 16/1/1 15/1/1
f 21/1/1 19/1/1 17/1/1
f 21/1/1 20/1/1 19/1/1
f 21/1/1 17/1/1 13/1/1
f 22/1/1 16/1/1 20/1/1
f 22/1/1 20/1/1 21/1/1
f 25/1/1 24/1/1 23/1/1
f 26/1/1 24/1/1 25/1/1
f 31/1/1 28/1/1 27/1/1
f 32/1/1 28/1/1 31/1/1
f 33/1/1 30/1/1 29/1/1
f 34/1/1 30/1/1 33/1/1
f 37/1/1 36/1/1 35/1/1
f 38/1/1 36/1/1 37/1/1
f 43/1/1 40/1/1 39/1/1
f 44/1/1 40/1/1 43/1/1
f 45/1/1 42/1/1 41/1/1
f 46/1/1 42/1/1 45/1/1
f 49/2/1 48/2/1 47/2/1
f 50/2/1 48/2/1 49/2/1
f 53/1/1 52/1/1 51/1/1
f 54/1/1 52/1/1 53/1/1
f 59/1/1 58/1/1 57/1/1
f 62/1/1 56/1/1 55/1/1
f 63/1/1 60/1/1 59/1/1
f 63/1/1 59/1/1 57/1/1
f 64/1/1 60/1/1 63/1/1
f 65/1/1 62/1/1 61/1/1
f 66/1/1 56/1/1 62/1/1
f 66/1/1 62/1/1 65/1/1
f 69/1/1 68/1/1 67/1/1
f 70/1/1 68/1/1 69/1/1
f 71/1/2 72/1/2 75/1/2
f 75/1/2 72/1/2 76/1/2
f 73/1/2 74/1/2 77/1/2
f 77/1/2 74/1/2 78/1/2
f 79/1/2 80/1/2 81/1/2
f 81/1/2 80/1/2 82/1/2
f 83/1/2 84/1/2 87/1/2
f 85/1/2 86/1/2 89/1/2
f 89/1/2 86/1/2 90/1/2
f 87/1/2 88/1/2 93/1/2
f 83/1/2 87/1/2 93/1/2
f 93/1/2 88/1/2 94/1/2
f 90/1/2 91/1/2 95/1/2
f 95/1/2 91/1/2 96/1/2
f 92/1/2 93/1/2 97/1/2
f 97/1/2 93/1/2 98/1/2
f 99/1/2 100/1/2 101/1/2
f 101/1/2 100/1/2 102/1/2
f 102/1/2 100/1/2 103/1/2
f 104/1/2 105/1/2 108/1/2
f 108/1/2 105/1/2 109/1/2
f 106/1/2 107/1/2 110/1/2
f 110/1/2 107/1/2 111/1/2
f 112/2/2 113/2/2 114/2/2
f 114/2/2 113/2/2 115/2/2
f 116/1/2 117/1/2 118/1/2
f 118/1/2 117/1/2 119/1/2
f 120/1/2 121/1/2 124/1/2
f 122/1/2 123/1/2 125/1/2
f 126/1/2 127/1/2 128/1/2
f 128/1/2 127/1/2 129/1/2
f 125/1/2 123/1/2 130/1/2
f 124/1/2 125/1/2 130/1/2
f 120/1/2 124/1/2 132/1/2
f 130/1/2 131/1/2 132/1/2
f 124/1/2 130/1/2 132/1/2
f 132/1/2 131/1/2 133/1/2
f 134/1/2 135/1/2 138/1/2
f 138/1/2 135/1/2 139/1/2
f 136/1/2 137/1/2 140/1/2
f 140/1/2 137/1/2 141/1/2
f 136/1/2 140/1/2 142/1/2
f 142/1/2 140/1/2 143/1/2
f 146/1/3 145/1/3 144/1/3
f 147/1/3 145/1/3 146/1/3
f 153/1/3 149/1/3 148/1/3
f 154/1/3 149/1/3 153/1/3
f 155/1/3 151/1/3 150/1/3
f 156/1/3 151/1/3 155/1/3
f 157/1/3 151/1/3 156/1/3
f 158/1/3 153/1/3 152/1/3
f 159/1/3 153/1/3 158/1/3
f 162/1/3 161/1/3 160/1/3
f 163/1/3 161/1/3 162/1/3
f 164/1/3 161/1/3 163/1/3
f 165/1/3 162/1/3 160/1/3
f 166/1/3 162/1/3 165/1/3
f 167/1/3 162/1/3 166/1/3
f 168/1/3 162/1/3 167/1/3
f 170/1/3 167/1/3 166/1/3
f 171/1/3 167/1/3 170/1/3
f 174/1/3 172/1/3 171/1/3
f 174/1/3 173/1/3 172/1/3
f 174/1/3 171/1/3 170/1/3
f 174/1/3 170/1/3 169/1/3
f 175/1/3 173/1/3 174/1/3
f 179/1/3 177/1/3 176/1/3
f 180/1/3 177/1/3 179/1/3
f 181/1/3 179/1/3 178/1/3
f 182/1/3 179/1/3 181/1/3
f 185/1/3 184/1/3 183/1/3
f 186/1/3 184/1/3 185/1/3
f 190/2/3 188/2/3 187/2/3
f 190/2/3 189/2/3 188/2/3
f 191/2/3 189/2/3 190/2/3
f 192/2/3 189/2/3 191/2/3
f 195/1/3 194/1/3 193/1/3
f 196/1/3 194/1/3 195/1/3
f 199/1/3 198/1/3 197/1/3
f 200/1/3 198/1/3 199/1/3
f 201/1/3 198/1/3 200/1/3
f 203/1/3 202/1/3 201/1/3
f 203/1/3 201/1/3 200/1/3
f 204/1/3 202/1/3 203/1/3
f 207/1/3 206/1/3 205/1/3
f 208/1/3 206/1/3 207/1/3
f 209/1/4 210/1/4 211/1/4
f 211/1/4 210/1/4 212/1/4
f 213/2/4 214/2/4 216/2/4
f 214/2/4 215/2/4 216/2/4
f 216/2/4 215/2/4 217/2/4
f 217/2/4 215/2/4 218/2/4
f 219/1/4 220/1/4 221/1/4
f 221/1/4 220/1/4 222/1/4
f 223/1/4 224/1/4 225/1/4
f 223/1/4 225/1/4 227/1/4
f 225/1/4 226/1/4 227/1/4
f 227/1/4 226/1/4 228/1/4
f 229/1/4 230/1/4 232/1/4
f 232/1/4 230/1/4 233/1/4
f 231/1/4 232/1/4 234/1/4
f 234/1/4 232/1/4 235/1/4
f 236/1/4 237/1/4 238/1/4
f 238/1/4 237/1/4 239/1/4
f 239/1/4 237/1/4 240/1/4
f 240/1/4 237/1/4 241/1/4
f 241/1/4 237/1/4 242/1/4
f 239/1/4 240/1/4 244/1/4
f 244/1/4 240/1/4 245/1/4
f 245/1/4 240/1/4 246/1/4
f 246/1/4 240/1/4 247/1/4
f 243/1/4 244/1/4 248/1/4
f 244/1/4 245/1/4 248/1/4
f 248/1/4 249/1/4 251/1/4
f 249/1/4 250/1/4 251/1/4
f 243/1/4 248/1/4 251/1/4
f 251/1/4 250/1/4 252/1/4
f 252/1/4 250/1/4 254/1/4
f 254/1/4 250/1/4 255/1/4
f 255/1/4 250/1/4 256/1/4
f 253/1/4 254/1/4 257/1/4
f 254/1/4 255/1/4 257/1/4
f 257/1/4 255/1/4 258/1/4
f 259/1/4 260/1/4 263/1/4
f 263/1/4 260/1/4 264/1/4
f 261/1/4 262/1/4 267/1/4
f 267/1/4 262/1/4 268/1/4
f 265/1/4 266/1/4 269/1/4
f 269/1/4 266/1/4 270/1/4
f 271/1/4 272/1/4 273/1/4
f 273/1/4 272/1/4 274/1/4
f 271/1/4 273/1/4 275/1/4
f 275/1/4 273/1/4 276/1/4
f 280/1/5 278/1/5 277/1/5
f 281/1/5 278/1/5 280/1/5
f 283/1/5 280/1/5 279/1/5
f 284/1/5 280/1/5 283/1/5
f 287/1/5 284/1/5 283/1/5
f 287/1/5 285/1/5 284/1/5
f 287/1/5 283/1/5 282/1/5
f 288/1/5 285/1/5 287/1/5
f 291/1/5 287/1/5 286/1/5
f 291/1/5 289/1/5 288/1/5
f 291/1/5 288/1/5 287/1/5
f 292/1/5 289/1/5 291/1/5
f 293/1/5 289/1/5 292/1/5
f 294/1/5 291/1/5 290/1/5
f 294/1/5 292/1/5 291/1/5
f 295/1/5 292/1/5 294/1/5
f 296/1/5 292/1/5 295/1/5
f 298/1/5 297/1/5 296/1/5
f 298/1/5 296/1/5 295/1/5
f 299/1/5 297/1/5 298/1/5
f 300/1/5 297/1/5 299/1/5
f 301/1/5 297/1/5 300/1/5
f 302/1/5 300/1/5 299/1/5
f 303/1/5 300/1/5 302/1/5
f 304/1/5 297/1/5 301/1/5
f 305/1/5 297/1/5 304/1/5
f 308/1/5 307/1/5 306/1/5
f 309/1/5 307/1/5 308/1/5
f 312/1/5 311/1/5 310/1/5
f 313/1/5 311/1/5 312/1/5
f 316/1/5 315/1/5 314/1/5
f 317/1/5 315/1/5 316/1/5
f 320/1/5 319/1/5 318/1/5
f 321/1/5 319/1/5 320/1/5
f 322/1/6 323/1/6 324/1/6
f 324/1/6 323/1/6 325/1/6
f 326/1/6 327/1/6 330/1/6
f 330/1/6 327/1/6 331/1/6
f 328/1/6 329/1/6 332/1/6
f 332/1/6 329/1/6 333/1/6
f 334/1/6 335/1/6 338/1/6
f 338/1/6 335/1/6 339/1/6
f 336/1/6 337/1/6 340/1/6
f 340/1/6 337/1/6 341/1/6
f 342/1/6 343/1/6 344/1/6
f 344/1/6 343/1/6 345/1/6
f 346/1/6 347/1/6 348/1/6
f 348/1/6 347/1/6 349/1/6
f 350/1/6 351/1/6 352/1/6
f 352/1/6 351/1/6 353/1/6
f 354/1/6 355/1/6 356/1/6
f 356/1/6 355/1/6 357/1/6
f 358/1/6 359/1/6 360/1/6
f 360/1/6 359/1/6 361/1/6
f 362/1/6 363/1/6 364/1/6
f 364/1/6 363/1/6 365/1/6
f 364/1/6 365/1/6 366/1/6
f 366/1/6 365/1/6 367/1/6
f 368/1/6 369/1/6 370/1/6
f 368/1/6 370/1/6 371/1/6
f 371/1/6 370/1/6 372/1/6
f 373/1/6 374/1/6 375/1/6
f 375/1/6 374/1/6 376/1/6
f 376/1/6 374/1/6 377/1/6
f 377/1/6 378/1/6 379/1/6
f 379/1/6 378/1/6 380/1/6
f 381/1/6 382/1/6 384/1/6
f 384/1/6 382/1/6 385/1/6
f 383/1/6 384/1/6 386/1/6
f 386/1/6 384/1/6 387/1/6
f 387/1/6 384/1/6 388/1/6
f 389/1/6 390/1/6 393/1/6
f 393/1/6 394/1/6 395/1/6
f 391/1/6 392/1/6 396/1/6
f 393/1/6 395/1/6 397/1/6
f 396/1/6 392/1/6 398/1/6
f 393/1/6 397/1/6 399/1/6
f 389/1/6 393/1/6 399/1/6
f 399/1/6 397/1/6 400/1/6
f 389/1/6 399/1/6 401/1/6
f 401/1/6 399/1/6 402/1/6
f 398/1/6 392/1/6 403/1/6
f 403/1/6 392/1/6 404/1/6
f 405/2/6 406/2/6 407/2/6
f 407/2/6 406/2/6 408/2/6
